<?xml version="1.0" standalone="no"?>
<!DOCTYPE svg PUBLIC "-//W3C//DTD SVG 20010904//EN"
 "http://www.w3.org/TR/2001/REC-SVG-20010904/DTD/svg10.dtd">
<svg version="1.0" xmlns="http://www.w3.org/2000/svg"
 width="512.000000pt" height="512.000000pt" viewBox="0 0 512.000000 512.000000"
 preserveAspectRatio="xMidYMid meet">
<metadata>
Created by potrace 1.14, written by Peter Selinger 2001-2017
</metadata>
<g transform="translate(0.000000,512.000000) scale(0.100000,-0.100000)"
fill="#000000" stroke="none">
<path d="M2990 5113 c-14 -2 -47 -11 -75 -20 -184 -58 -303 -159 -396 -333
-13 -25 -25 -47 -26 -49 -1 -2 -21 13 -44 33 -139 126 -278 165 -584 164 -191
0 -224 -8 -250 -58 -20 -39 -19 -212 2 -303 49 -213 212 -390 425 -461 72 -25
98 -28 251 -30 81 -2 150 -6 154 -10 8 -8 10 -395 2 -408 -4 -6 -58 -11 -125
-12 -185 -3 -188 -6 -189 -246 l-2 -175 -236 -5 -237 -5 -27 -28 -28 -27 -5
-1463 -5 -1463 -370 0 -370 1 -1 313 c0 197 3 315 9 319 6 3 49 7 96 8 156 4
292 63 390 171 97 106 142 228 143 392 2 174 -16 187 -255 179 -183 -6 -263
-24 -352 -81 -59 -39 -127 -106 -152 -153 -9 -18 -20 -33 -24 -33 -4 0 -23 15
-44 34 -97 90 -219 127 -415 129 -176 1 -203 -4 -230 -48 -38 -61 -22 -277 29
-388 61 -133 218 -266 347 -292 21 -5 46 -10 54 -12 8 -1 54 -4 103 -5 l87 -2
0 -266 0 -267 -273 1 c-243 1 -276 -1 -309 -17 -64 -32 -75 -114 -23 -166 l25
-26 2499 0 2499 0 25 23 c31 29 43 84 26 125 -24 57 -53 62 -357 61 l-272 -1
0 318 c0 176 3 319 8 320 4 0 45 2 92 3 253 11 434 141 512 370 23 69 26 92
25 197 -2 115 -3 119 -30 146 l-27 28 -154 1 c-178 2 -258 -11 -352 -57 -67
-33 -148 -105 -190 -169 -15 -22 -30 -40 -34 -40 -4 0 -15 10 -26 22 -30 33
-133 97 -178 110 -89 25 -131 30 -266 32 -140 2 -176 -5 -207 -40 -24 -29 -26
-41 -24 -174 3 -184 87 -342 231 -439 103 -68 183 -91 341 -94 l64 -2 1 -262
c1 -145 -2 -264 -5 -265 -3 0 -171 -2 -373 -3 l-368 -2 -2 1463 -3 1464 -28
27 -27 28 -237 5 -237 5 2 155 c2 250 -7 263 -189 266 -64 1 -120 4 -125 7 -7
4 -11 520 -5 617 1 14 20 16 124 17 215 1 310 24 431 104 117 77 179 149 236
272 44 94 59 175 57 303 -2 110 -3 115 -30 141 l-27 28 -223 1 c-122 1 -233
-1 -247 -3z"/>
</g>
</svg>
